<?xml version="1.0" encoding="iso-8859-1"?>
<!-- Uploaded to: SVG Repo, www.svgrepo.com, Generator: SVG Repo Mixer Tools -->
<svg height="800px" width="800px" version="1.1" id="Layer_1" xmlns="http://www.w3.org/2000/svg" xmlns:xlink="http://www.w3.org/1999/xlink" 
	 viewBox="0 0 512 512" xml:space="preserve">
<path style="fill:#60DD4D;" d="M256.001,57.915c-56.007,0-101.572,45.565-101.572,101.572v280.816h203.143V159.487
	C357.572,103.48,312.007,57.915,256.001,57.915z"/>
<path style="fill:#00C47A;" d="M256.001,57.915v382.387h101.572V159.487C357.572,103.48,312.007,57.915,256.001,57.915z"/>
<path style="fill:#FFDB2D;" d="M105.545,273.008l10.75,182.753c1.856,31.536,28.054,56.24,59.645,56.24h160.121
	c31.591,0,57.789-24.703,59.645-56.24l10.75-182.753H105.545z"/>
<polygon style="fill:#FF318F;" points="256.001,77.289 204.06,25.349 229.408,0 256.001,26.591 282.592,0 307.941,25.349 "/>
<polygon style="fill:#BF256B;" points="256.001,77.289 256.001,26.591 282.592,0 307.941,25.349 "/>
<polygon style="fill:#FF318F;" points="125.279,223.376 99.93,198.028 126.522,171.436 99.93,144.845 125.279,119.496 
	177.22,171.436 "/>
<polygon style="fill:#BF256B;" points="386.721,223.376 334.781,171.436 386.721,119.496 412.07,144.845 385.478,171.436 
	412.07,198.026 "/>
<path style="fill:#FFAE33;" d="M256.001,273.008V512h80.06c31.591,0,57.789-24.703,59.645-56.24l10.75-182.753H256.001z"/>
<polygon style="fill:#FF318F;" points="196.239,369.068 255.987,395.357 315.733,369.068 375.486,395.357 399.891,384.62 
	402.255,344.414 375.486,356.191 315.732,329.902 255.987,356.191 196.239,329.902 136.495,356.191 109.746,344.421 
	112.111,384.628 136.495,395.357 "/>
<polygon style="fill:#BF256B;" points="255.987,395.357 315.733,369.068 375.486,395.357 399.891,384.62 402.255,344.414 
	375.486,356.191 315.732,329.902 255.987,356.191 "/>
</svg>